# xmcd
#
# Track frame offsets:
#	150
#	23826
#	39895
#	54527
#	73485
#	90942
#	112788
#	131959
#	151808
#	176796
#	195559
#	214118
#
# Disc length: 3171 seconds
# Revision: 0
# Processed by: cddbd v1.5.2PL0 Copyright (c) Steve Scherf et al.
# Submitted via: dBpowerAMP V12.0
#
DISCID=9f0c610c
DTITLE=Biscuit Miller - Blues with a Smile
DYEAR=2010
DGENRE=Blues
TTITLE0=Belly Up Some Blues
TTITLE1=Sleepin In the Dog House
TTITLE2=Butter My Biscuits
TTITLE3=Walk with you Baby
TTITLE4=Black Eyed Peas and Cornbread
TTITLE5=Blow A kiss
TTITLE6=Boneheads
TTITLE7=Willie D
TTITLE8=Never Seen it Comin
TTITLE9=Call Him Doctor Love
TTITLE10=Summer Time Blues
TTITLE11=Sing for the People
EXTD=
EXTT0=
EXTT1=
EXTT2=
EXTT3=
EXTT4=
EXTT5=
EXTT6=
EXTT7=
EXTT8=
EXTT9=
EXTT10=
EXTT11=
PLAYORDER=
